<svg xmlns="http://www.w3.org/2000/svg" viewBox="0 0 720 148" width="720" height="148" role="img" aria-label="Judged correctness">
<style>text{font:13px system-ui,-apple-system,"Segoe UI",sans-serif;fill:currentColor}.t{font-weight:600;font-size:14px}.v{font-size:12px;opacity:.75}</style>
<text class="t" x="16" y="22">Judged correctness</text>
<text x="240" y="51.0" text-anchor="end">single_pass</text>
<rect x="248" y="39.5" width="314.8" height="4" fill="#3b6fd4"/>
<rect x="248" y="44.5" width="80.5" height="4" fill="#c05621"/>
<rect x="248" y="49.5" width="43.9" height="4" fill="#2f855a"/>
<text class="v" x="646" y="51.0">0.716667 / 0.183333 / 0.1</text>
<text x="240" y="77.0" text-anchor="end">search_loop</text>
<rect x="248" y="65.5" width="388.0" height="4" fill="#3b6fd4"/>
<rect x="248" y="70.5" width="43.9" height="4" fill="#c05621"/>
<rect x="248" y="75.5" width="7.3" height="4" fill="#2f855a"/>
<text class="v" x="646" y="77.0">0.883333 / 0.1 / 0.0166667</text>
<text x="240" y="103.0" text-anchor="end">outline</text>
<rect x="248" y="91.5" width="270.9" height="4" fill="#3b6fd4"/>
<rect x="248" y="96.5" width="29.3" height="4" fill="#c05621"/>
<rect x="248" y="101.5" width="139.1" height="4" fill="#2f855a"/>
<text class="v" x="646" y="103.0">0.616667 / 0.0666667 / 0.316667</text>
<rect x="16" y="131" width="10" height="10" fill="#3b6fd4"/>
<text class="v" x="30" y="140">correct</text>
<rect x="92" y="131" width="10" height="10" fill="#c05621"/>
<text class="v" x="106" y="140">partial</text>
<rect x="168" y="131" width="10" height="10" fill="#2f855a"/>
<text class="v" x="182" y="140">wrong</text>
</svg>
